<svg xmlns="http://www.w3.org/2000/svg" viewBox="0 0 64 64">
  <rect width="64" height="64" rx="16" fill="#0f5257"/>
  <path d="M32 15c-6 0-9 3-13 3-3.5 0-6-2-8-2-1.6 0-2.6 1.3-2.6 4 0 4 1.4 8 2.8 13 1 3.6 1.7 9 2.8 12.6.9 3 2 4.4 3.6 4.4 2 0 2.7-2.2 3.4-5.4.9-4.2 1.8-7 4-7s3.1 2.8 4 7c.7 3.2 1.4 5.4 3.4 5.4 1.6 0 2.7-1.4 3.6-4.4 1.1-3.6 1.8-9 2.8-12.6 1.4-5 2.8-9 2.8-13 0-2.7-1-4-2.6-4-2 0-4.5 2-8 2-4 0-7-3-13-3z" fill="#fff"/>
  <path d="M20 24c1.6 0 3 1.6 3.6 4" fill="none" stroke="#a8e0d3" stroke-width="2.4" stroke-linecap="round"/>
</svg>
